# xmcd CD database file
#
# Track frame offsets:
#	150
#	23567
#	63752
#	95635
#	120805
#	147862
#	175962
#	201035
#	226737
#	260585
#
# Disc length: 3803 seconds
#
# Revision: 0
# Processed by: cddbd v1.5.2PL0 Copyright (c) Steve Scherf et al.
# Submitted via: CDex 1.70beta2
#
DISCID=790ed90a
DTITLE=Larry McKenna - My Shining Hour
DYEAR=1994
DGENRE=Jazz
TTITLE0=My Shining Hour
TTITLE1=As Long As I Live
TTITLE2=Out Of This World
TTITLE3=Somewhere Over The Rainbow
TTITLE4=I've Got The World On A String
TTITLE5=Let's Fall In Love
TTITLE6=Let's Fall In Love
TTITLE7=Get Happy
TTITLE8=Sleepin' Bee
TTITLE9=It's Only A Paper Moon
EXTD=YEAR: 1994
EXTT0=
EXTT1=
EXTT2=
EXTT3=
EXTT4=
EXTT5=
EXTT6=
EXTT7=
EXTT8=
EXTT9=
PLAYORDER=
